<?xml version="1.0" encoding="UTF-8" standalone="no"?>
<!DOCTYPE svg PUBLIC "-//W3C//DTD SVG 1.1//EN" "http://www.w3.org/Graphics/SVG/1.1/DTD/svg11.dtd">
<svg width="100%" height="100%" viewBox="0 0 32 64" version="1.1" xmlns="http://www.w3.org/2000/svg" xmlns:xlink="http://www.w3.org/1999/xlink" xml:space="preserve" xmlns:serif="http://www.serif.com/" style="fill-rule:evenodd;clip-rule:evenodd;stroke-linejoin:round;stroke-miterlimit:2;">
    <g id="Walk" transform="matrix(2.5,-1.23236e-17,2.49242e-17,2.5,-341.298,-527)">
        <path d="M146.895,230.587C146.838,230.32 146.721,230.068 146.551,229.85L144.33,226.941L144.333,221.054C144.338,220.906 144.481,220.776 144.333,220.744L142.22,220.155C141.984,220.102 141.604,220.061 141.395,220.181L137.949,222.304C137.237,222.739 137.041,223.084 137,223.839L137,226.107C137,226.566 137.193,226.918 137.667,226.918C138.14,226.918 138.333,226.542 138.333,226.107L138.333,224C138.333,223.63 139.104,223.288 139.396,223.123L140.833,222.195L140.773,225.486C140.752,225.809 140.863,226.127 141.081,226.371L144.562,230.415C144.666,230.531 144.718,230.722 144.752,230.872L145.8,235.259C145.897,235.691 146.292,236 146.749,236L146.752,236C147.367,236 147.828,235.452 147.703,234.867L146.895,230.587ZM148.776,224.933C148.77,224.928 145.526,221.764 145.526,221.764L145.456,223.787L147.688,226.01C148.418,226.682 149.463,225.582 148.776,224.933ZM140.573,230.448C140.569,230.537 140.546,230.757 140.474,230.813L137.599,233.017C137.118,233.408 137.079,233.938 137.383,234.377C137.729,234.877 138.447,234.975 138.923,234.588L142.123,232.054C142.38,231.845 142.54,231.545 142.57,231.221L142.64,229.805L140.778,227.695L140.573,230.448Z" style="fill:rgb(36,150,42);stroke:rgb(36,150,42);stroke-width:0.4px;"/>
    </g>
    <g id="Plan-de-travail1" serif:id="Plan de travail1" transform="matrix(0.223776,0,0,0.313725,0,0)">
        <rect x="0" y="0" width="143" height="204" style="fill:none;"/>
        <g id="logo-svg" serif:id="logo svg" transform="matrix(-0.184226,0.0385839,0.054093,0.131406,220.892,-40.374)">
            <g>
                <g transform="matrix(1.15385,0,0,1,-138.615,124)">
                    <ellipse cx="901" cy="63" rx="13" ry="144.019" style="fill:rgb(36,150,42);"/>
                </g>
                <g>
                    <g transform="matrix(0.965926,-0.383779,0.305707,1.69175,-74.1954,195.44)">
                        <path d="M889.5,130.742C907.989,130.742 939,209.918 939,248C939,286.082 923.989,289.908 905.5,289.908C887.011,289.908 901,264.916 901,226.834C901,188.752 901.746,166.522 889.5,130.742Z" style="fill:rgb(36,150,42);"/>
                    </g>
                    <g transform="matrix(-0.965926,-0.383779,-0.305707,1.69175,1876.2,195.44)">
                        <path d="M889.5,130.742C907.989,130.742 939,209.918 939,248C939,286.082 923.989,289.908 905.5,289.908C887.011,289.908 901,264.916 901,226.834C901,188.752 901.746,166.522 889.5,130.742Z" style="fill:rgb(36,150,42);"/>
                    </g>
                </g>
                <g>
                    <g transform="matrix(0.874601,-0.67827,0.801145,1.03304,-126.643,648.08)">
                        <path d="M889.5,130.742C907.989,130.742 939,209.918 939,248C939,286.082 923.989,289.908 905.5,289.908C887.011,289.908 901,264.916 901,226.834C901,188.752 901.746,166.522 889.5,130.742Z" style="fill:rgb(36,150,42);"/>
                    </g>
                    <g transform="matrix(-0.874601,-0.67827,-0.801145,1.03304,1928.64,648.08)">
                        <path d="M889.5,130.742C907.989,130.742 939,209.918 939,248C939,286.082 923.989,289.908 905.5,289.908C887.011,289.908 901,264.916 901,226.834C901,188.752 901.746,166.522 889.5,130.742Z" style="fill:rgb(36,150,42);"/>
                    </g>
                </g>
                <g>
                    <g transform="matrix(0.258819,-0.965926,1.14091,0.305707,345.865,1115.09)">
                        <path d="M889.5,130.742C907.989,130.742 939,209.918 939,248C939,286.082 923.989,289.908 905.5,289.908C887.011,289.908 901,264.916 901,226.834C901,188.752 901.746,166.522 889.5,130.742Z" style="fill:rgb(36,150,42);"/>
                    </g>
                    <g transform="matrix(-0.258819,-0.965926,-1.14091,0.305707,1456.14,1115.09)">
                        <path d="M889.5,130.742C907.989,130.742 939,209.918 939,248C939,286.082 923.989,289.908 905.5,289.908C887.011,289.908 901,264.916 901,226.834C901,188.752 901.746,166.522 889.5,130.742Z" style="fill:rgb(36,150,42);"/>
                    </g>
                </g>
            </g>
            <g transform="matrix(1,0,0,1.15584,0,-89.0779)">
                <path d="M1008,422.055C1008,380.631 969.128,347 921.248,347L880.752,347C832.872,347 794,380.631 794,422.055L794,502.945C794,544.369 832.872,578 880.752,578L921.248,578C969.128,578 1008,544.369 1008,502.945L1008,422.055Z" style="fill:rgb(36,150,42);"/>
                <clipPath id="_clip1">
                    <path d="M1008,422.055C1008,380.631 969.128,347 921.248,347L880.752,347C832.872,347 794,380.631 794,422.055L794,502.945C794,544.369 832.872,578 880.752,578L921.248,578C969.128,578 1008,544.369 1008,502.945L1008,422.055Z"/>
                </clipPath>
                <g clip-path="url(#_clip1)">
                    <g transform="matrix(7.03331,0,0,6.085,-4949.31,-1561.06)">
                        <path d="M803,324L839,360" style="fill:none;"/>
                    </g>
                    <g transform="matrix(7.03331,0,0,6.085,-4921.45,-1585.16)">
                        <path d="M803,324L839,360" style="fill:none;"/>
                    </g>
                    <g transform="matrix(7.03331,0,0,6.085,-4893.59,-1609.26)">
                        <path d="M803,324L839,360" style="fill:none;"/>
                    </g>
                    <g transform="matrix(7.03331,0,0,6.085,-4865.73,-1633.36)">
                        <path d="M803,324L839,360" style="fill:none;"/>
                    </g>
                    <g transform="matrix(7.03331,0,0,6.085,-4837.88,-1657.46)">
                        <path d="M803,324L839,360" style="fill:none;"/>
                    </g>
                    <g transform="matrix(7.03331,0,0,6.085,-4810.02,-1681.56)">
                        <path d="M803,324L839,360" style="fill:none;"/>
                    </g>
                    <g transform="matrix(7.03331,0,0,6.085,-4782.16,-1705.66)">
                        <path d="M803,324L839,360" style="fill:none;"/>
                    </g>
                    <g transform="matrix(-7.03331,0,0,6.085,6772.49,-1555.9)">
                        <path d="M803,324L839,360" style="fill:none;"/>
                    </g>
                    <g transform="matrix(-7.03331,0,0,6.085,6744.63,-1580)">
                        <path d="M803,324L839,360" style="fill:none;"/>
                    </g>
                    <g transform="matrix(-7.03331,0,0,6.085,6716.77,-1604.1)">
                        <path d="M803,324L839,360" style="fill:none;"/>
                    </g>
                    <g transform="matrix(-7.03331,0,0,6.085,6688.92,-1628.21)">
                        <path d="M803,324L839,360" style="fill:none;"/>
                    </g>
                    <g transform="matrix(-7.03331,0,0,6.085,6661.06,-1652.31)">
                        <path d="M803,324L839,360" style="fill:none;"/>
                    </g>
                    <g transform="matrix(-7.03331,0,0,6.085,6633.2,-1676.41)">
                        <path d="M803,324L839,360" style="fill:none;"/>
                    </g>
                    <g transform="matrix(-7.03331,0,0,6.085,6605.34,-1700.51)">
                        <path d="M803,324L839,360" style="fill:none;"/>
                    </g>
                </g>
            </g>
        </g>
    </g>
</svg>
